<?xml version="1.0" encoding="UTF-8"?><svg id="Calque_1" xmlns="http://www.w3.org/2000/svg" xmlns:xlink="http://www.w3.org/1999/xlink" viewBox="0 0 850.39 850.39"><defs><style>.cls-1{fill:url(#Dégradé_sans_nom_7);}.cls-2{fill:url(#Dégradé_sans_nom_7-2);}.cls-3{fill:url(#Dégradé_sans_nom_7-4);}.cls-4{fill:url(#Dégradé_sans_nom_7-3);}</style><linearGradient id="Dégradé_sans_nom_7" x1="198.98" y1="639.85" x2="552.93" y2="285.9" gradientUnits="userSpaceOnUse"><stop offset=".06" stop-color="#524697"/><stop offset=".09" stop-color="#614895"/><stop offset=".21" stop-color="#924e92"/><stop offset=".33" stop-color="#b85390"/><stop offset=".43" stop-color="#d4578e"/><stop offset=".53" stop-color="#e5598d"/><stop offset=".6" stop-color="#eb5a8d"/><stop offset=".61" stop-color="#eb5c8a"/><stop offset=".75" stop-color="#ee7474"/><stop offset=".89" stop-color="#f08367"/><stop offset="1" stop-color="#f18963"/></linearGradient><linearGradient id="Dégradé_sans_nom_7-2" x1="472.17" y1="408.97" x2="637.96" y2="243.19" xlink:href="#Dégradé_sans_nom_7"/><linearGradient id="Dégradé_sans_nom_7-3" x1="290.09" y1="549.89" x2="484.85" y2="355.13" xlink:href="#Dégradé_sans_nom_7"/><linearGradient id="Dégradé_sans_nom_7-4" x1="611.32" y1="286.8" x2="710.98" y2="187.14" xlink:href="#Dégradé_sans_nom_7"/></defs><path class="cls-1" d="M550.3,592.22c-165.66,164.2-444.46-23.6-345.05-242.6,38.07-83.87,127.45-129.95,218.25-123.7v-69.45c-29.47-.96-54.54,1.88-64.82,3.31-165.54,22.98-273.2,186.02-234.63,348.3,34.61,145.59,185.84,239.69,332.05,209.49,113.21-23.39,200.22-114.66,222.48-227.39l.9-6.12h-68.37c-15.15,40.01-29.72,77.36-60.8,108.17Z"/><polygon class="cls-2" points="551.23 156.46 482.05 156.46 482.05 418.85 486.04 422.84 700.93 422.84 721.87 353.65 551.28 353.65 551.23 156.46"/><path class="cls-4" d="M333.09,490.63c-41.69-53.71-4.8-131.23,62.45-134.51,10.13-.49,27.96.18,27.96.18v-62.54s-13.54-3.89-41.22-1.31c-178.73,16.65-179.6,281.2.26,300.4,69.82,7.45,145.97-38.95,160.72-108.83h-73.18c-31.82,49.18-100.69,53.35-136.98,6.59Z"/><polygon class="cls-3" points="661.49 234.27 661.49 156.46 611.11 156.46 611.11 286.59 742.08 286.59 758.12 234.27 661.49 234.27"/></svg>