<?xml version="1.0" encoding="UTF-8"?><svg id="Calque_1" xmlns="http://www.w3.org/2000/svg" xmlns:xlink="http://www.w3.org/1999/xlink" viewBox="0 0 1463.17 850.39"><defs><style>.cls-1{fill:url(#Dégradé_sans_nom_5);}.cls-2{fill:url(#Dégradé_sans_nom_5-4);}.cls-3{fill:url(#Dégradé_sans_nom_5-3);}.cls-4{fill:url(#Dégradé_sans_nom_5-2);}.cls-5{fill:#f18963;}</style><linearGradient id="Dégradé_sans_nom_5" x1="646.01" y1="653.85" x2="999.96" y2="299.9" gradientUnits="userSpaceOnUse"><stop offset=".06" stop-color="#524697"/><stop offset=".13" stop-color="#5b4796"/><stop offset=".24" stop-color="#754a94"/><stop offset=".38" stop-color="#9e5091"/><stop offset=".55" stop-color="#d8578e"/><stop offset=".6" stop-color="#eb5a8d"/><stop offset=".61" stop-color="#eb5c8a"/><stop offset=".75" stop-color="#ee7474"/><stop offset=".89" stop-color="#f08367"/><stop offset="1" stop-color="#f18963"/></linearGradient><linearGradient id="Dégradé_sans_nom_5-2" x1="919.19" y1="422.98" x2="1084.98" y2="257.19" xlink:href="#Dégradé_sans_nom_5"/><linearGradient id="Dégradé_sans_nom_5-3" x1="737.11" y1="563.9" x2="931.88" y2="369.14" xlink:href="#Dégradé_sans_nom_5"/><linearGradient id="Dégradé_sans_nom_5-4" x1="1058.34" y1="300.81" x2="1158.01" y2="201.15" xlink:href="#Dégradé_sans_nom_5"/></defs><path class="cls-1" d="M997.33,606.23c-165.66,164.2-444.46-23.6-345.05-242.6,38.07-83.87,127.45-129.95,218.25-123.7v-69.45c-29.47-.96-54.54,1.88-64.82,3.31-165.54,22.98-273.2,186.02-234.63,348.3,34.61,145.59,185.84,239.69,332.05,209.49,113.21-23.39,200.22-114.66,222.48-227.39l.9-6.12h-68.37c-15.15,40.01-29.72,77.36-60.8,108.17Z"/><polygon class="cls-4" points="998.26 170.47 929.07 170.47 929.07 432.86 933.06 436.85 1147.96 436.85 1168.89 367.66 998.3 367.66 998.26 170.47"/><path class="cls-3" d="M780.11,504.64c-41.69-53.71-4.8-131.23,62.45-134.51,10.13-.49,27.96.18,27.96.18v-62.54s-13.54-3.89-41.22-1.31c-178.73,16.65-179.6,281.2.26,300.4,69.82,7.45,145.97-38.95,160.72-108.83h-73.18c-31.82,49.18-100.69,53.35-136.98,6.59Z"/><polygon class="cls-2" points="1108.52 248.28 1108.52 170.47 1058.13 170.47 1058.13 300.6 1189.1 300.6 1205.14 248.28 1108.52 248.28"/><path class="cls-5" d="M303.09,610.12c-.46-1.79-1.1-3.44-1.91-4.94-.81-1.5-1.85-2.8-3.12-3.9-1.27-1.1-2.76-1.95-4.46-2.55-1.71-.61-3.68-.91-5.94-.91-3.29,0-6.14.67-8.53,1.99-2.4,1.33-4.35,3.11-5.85,5.33-1.5,2.22-2.61,4.75-3.33,7.58-.72,2.83-1.08,5.72-1.08,8.67s.36,5.84,1.08,8.66c.72,2.83,1.83,5.36,3.33,7.59,1.5,2.22,3.45,4,5.85,5.33,2.39,1.33,5.24,1.99,8.53,1.99,2.43,0,4.56-.42,6.41-1.26s3.44-1.99,4.77-3.47c1.33-1.47,2.37-3.19,3.12-5.16.75-1.96,1.24-4.07,1.47-6.33h10.57c-.23,3.7-1.02,7.08-2.38,10.14-1.36,3.06-3.19,5.7-5.5,7.93-2.31,2.23-5.03,3.94-8.15,5.16-3.12,1.21-6.56,1.82-10.31,1.82-4.62,0-8.77-.85-12.43-2.56-3.67-1.7-6.78-4.03-9.32-6.97s-4.49-6.38-5.85-10.31c-1.36-3.93-2.04-8.12-2.04-12.57s.68-8.55,2.04-12.48c1.36-3.93,3.31-7.37,5.85-10.31s5.65-5.28,9.32-7.02c3.67-1.73,7.81-2.6,12.43-2.6,3.47,0,6.73.48,9.79,1.43,3.06.95,5.76,2.34,8.1,4.16,2.34,1.82,4.23,4.03,5.68,6.63,1.44,2.6,2.34,5.58,2.69,8.92h-10.83Z"/><path class="cls-5" d="M322.76,590.45h9.88v61.87h-9.88v-61.87Z"/><path class="cls-5" d="M382.73,652.32h-9.7v-6.24h-.18c-1.21,2.25-3.02,4.06-5.42,5.42s-4.84,2.04-7.32,2.04c-5.89,0-10.15-1.46-12.78-4.38s-3.94-7.32-3.94-13.21v-28.43h9.88v27.47c0,3.93.75,6.7,2.25,8.32,1.5,1.62,3.61,2.43,6.33,2.43,2.08,0,3.81-.32,5.2-.95s2.51-1.49,3.38-2.56c.87-1.07,1.49-2.35,1.86-3.86.37-1.5.56-3.12.56-4.86v-26h9.88v44.8Z"/><path class="cls-5" d="M393.39,590.45h9.88v22.88h.18c.69-1.1,1.53-2.08,2.51-2.95.98-.87,2.06-1.6,3.25-2.21,1.18-.6,2.43-1.07,3.73-1.39s2.59-.48,3.86-.48c3.52,0,6.6.62,9.23,1.86,2.63,1.24,4.81,2.95,6.54,5.12,1.73,2.17,3.03,4.69,3.9,7.58.87,2.89,1.3,5.98,1.3,9.27,0,3.01-.39,5.92-1.17,8.75s-1.97,5.33-3.55,7.49c-1.59,2.17-3.6,3.9-6.02,5.2s-5.29,1.95-8.58,1.95c-1.5,0-3.02-.1-4.55-.3-1.53-.2-2.99-.59-4.38-1.17s-2.64-1.33-3.77-2.25c-1.13-.92-2.07-2.13-2.81-3.64h-.17v6.15h-9.36v-61.87ZM427.87,629.96c0-2.02-.26-3.99-.78-5.89-.52-1.91-1.3-3.6-2.34-5.07s-2.34-2.65-3.9-3.55-3.35-1.34-5.37-1.34c-4.16,0-7.29,1.44-9.4,4.33s-3.16,6.73-3.16,11.52c0,2.25.27,4.35.82,6.28.55,1.94,1.37,3.6,2.47,4.98s2.41,2.49,3.94,3.29c1.53.81,3.31,1.21,5.33,1.21,2.25,0,4.16-.46,5.72-1.39,1.56-.92,2.84-2.12,3.86-3.6,1.01-1.47,1.73-3.15,2.17-5.03.43-1.87.65-3.8.65-5.76Z"/><path class="cls-5" d="M512.36,652.32h-9.36v-6.06h-.17c-1.33,2.6-3.27,4.46-5.8,5.59-2.55,1.13-5.23,1.69-8.06,1.69-3.52,0-6.6-.62-9.23-1.86-2.63-1.24-4.81-2.93-6.54-5.07-1.73-2.13-3.03-4.66-3.9-7.58-.87-2.91-1.3-6.05-1.3-9.4,0-4.04.55-7.54,1.65-10.48,1.1-2.95,2.55-5.37,4.38-7.28,1.82-1.91,3.9-3.31,6.24-4.2,2.34-.89,4.72-1.34,7.15-1.34,1.39,0,2.8.13,4.24.39s2.83.68,4.16,1.26c1.33.58,2.56,1.32,3.68,2.21,1.13.9,2.07,1.95,2.82,3.16h.17v-22.88h9.88v61.87ZM477.87,630.4c0,1.91.24,3.78.74,5.63s1.24,3.5,2.25,4.94c1.01,1.44,2.3,2.6,3.86,3.47,1.56.87,3.41,1.3,5.55,1.3s4.09-.46,5.68-1.39c1.59-.92,2.89-2.13,3.9-3.64,1.01-1.5,1.76-3.19,2.25-5.07.49-1.88.74-3.8.74-5.76,0-4.97-1.11-8.84-3.34-11.61-2.22-2.77-5.24-4.16-9.06-4.16-2.31,0-4.26.48-5.85,1.43-1.59.96-2.89,2.2-3.9,3.73-1.01,1.53-1.73,3.27-2.17,5.2-.44,1.94-.65,3.91-.65,5.94Z"/><path class="cls-5" d="M530.82,632.48c0,1.73.24,3.41.74,5.02s1.23,3.03,2.21,4.25c.98,1.21,2.23,2.18,3.73,2.9,1.5.72,3.29,1.08,5.37,1.08,2.89,0,5.22-.62,6.98-1.86,1.76-1.24,3.08-3.1,3.94-5.59h9.36c-.52,2.43-1.42,4.59-2.69,6.5-1.27,1.91-2.8,3.51-4.59,4.81-1.79,1.3-3.8,2.28-6.02,2.95-2.23.66-4.55,1-6.98,1-3.52,0-6.64-.58-9.36-1.73-2.71-1.15-5.01-2.77-6.89-4.85-1.88-2.08-3.29-4.56-4.24-7.45-.96-2.89-1.43-6.06-1.43-9.53,0-3.18.51-6.2,1.52-9.06,1.01-2.86,2.45-5.38,4.33-7.54,1.87-2.17,4.14-3.88,6.8-5.16,2.66-1.27,5.66-1.91,9.01-1.91,3.52,0,6.69.74,9.49,2.21,2.8,1.47,5.12,3.42,6.98,5.85,1.85,2.43,3.19,5.22,4.03,8.36.84,3.15,1.05,6.4.65,9.75h-32.93ZM553.87,625.98c-.12-1.56-.45-3.06-1-4.51-.55-1.44-1.3-2.7-2.25-3.77s-2.11-1.94-3.47-2.6c-1.36-.66-2.87-1-4.55-1s-3.31.3-4.72.91c-1.42.6-2.63,1.44-3.64,2.51-1.01,1.07-1.82,2.33-2.43,3.77-.6,1.44-.94,3.01-1,4.68h23.05Z"/><path class="cls-5" d="M261.32,667.48h10.83v52.52h31.46v9.36h-42.29v-61.87Z"/><path class="cls-5" d="M347.2,719.38c0,1.22.16,2.08.48,2.6.32.52.94.78,1.86.78h1.04c.4,0,.87-.06,1.39-.18v6.85c-.34.11-.79.24-1.34.39-.55.14-1.11.27-1.69.39-.58.12-1.16.2-1.73.26-.58.06-1.07.09-1.47.09-2.02,0-3.7-.4-5.03-1.21s-2.2-2.22-2.6-4.25c-1.97,1.91-4.38,3.29-7.24,4.16-2.86.87-5.62,1.3-8.27,1.3-2.02,0-3.96-.28-5.81-.82s-3.48-1.35-4.9-2.43c-1.42-1.07-2.54-2.43-3.38-4.07-.84-1.65-1.26-3.57-1.26-5.76,0-2.77.5-5.02,1.52-6.76,1.01-1.73,2.34-3.09,3.99-4.07,1.65-.98,3.49-1.69,5.54-2.12s4.12-.76,6.2-1c1.79-.35,3.49-.59,5.11-.74s3.05-.39,4.29-.74c1.24-.35,2.22-.88,2.95-1.6s1.08-1.8,1.08-3.25c0-1.27-.3-2.31-.91-3.12-.6-.81-1.36-1.43-2.25-1.86s-1.89-.72-2.99-.87c-1.1-.14-2.14-.22-3.12-.22-2.77,0-5.06.58-6.85,1.73-1.79,1.16-2.8,2.95-3.03,5.37h-9.88c.18-2.89.87-5.28,2.08-7.19,1.21-1.91,2.76-3.44,4.64-4.59,1.88-1.15,4-1.96,6.37-2.43,2.37-.46,4.8-.69,7.28-.69,2.19,0,4.36.23,6.5.69,2.14.46,4.06,1.21,5.76,2.25,1.7,1.04,3.07,2.38,4.12,4.03,1.04,1.65,1.56,3.65,1.56,6.02v23.05ZM337.32,706.91c-1.5.98-3.35,1.58-5.55,1.78-2.19.2-4.39.51-6.59.91-1.04.18-2.05.42-3.03.74-.98.32-1.85.75-2.6,1.3-.75.55-1.34,1.27-1.78,2.17-.43.9-.65,1.98-.65,3.25,0,1.1.32,2.02.95,2.77.64.75,1.4,1.34,2.3,1.78.89.43,1.87.74,2.95.91,1.07.17,2.03.26,2.9.26,1.1,0,2.28-.14,3.55-.43,1.27-.29,2.47-.78,3.6-1.48,1.13-.69,2.07-1.57,2.81-2.64.75-1.07,1.13-2.38,1.13-3.94v-7.37Z"/><path class="cls-5" d="M397.2,729.35h-9.71v-6.24h-.17c-1.21,2.25-3.02,4.06-5.42,5.42s-4.84,2.04-7.32,2.04c-5.89,0-10.16-1.46-12.78-4.38-2.63-2.92-3.94-7.32-3.94-13.21v-28.43h9.88v27.47c0,3.93.75,6.7,2.25,8.32s3.61,2.43,6.33,2.43c2.08,0,3.81-.32,5.2-.95,1.39-.64,2.51-1.49,3.38-2.56.87-1.07,1.49-2.35,1.86-3.86s.56-3.12.56-4.86v-26h9.88v44.8Z"/><path class="cls-5" d="M415.05,714.96c.29,2.89,1.39,4.91,3.29,6.07,1.91,1.16,4.19,1.73,6.85,1.73.92,0,1.98-.07,3.16-.22,1.18-.14,2.29-.42,3.33-.82s1.89-1,2.56-1.78.97-1.81.91-3.07c-.06-1.27-.52-2.31-1.39-3.12-.87-.81-1.98-1.46-3.34-1.95-1.36-.49-2.9-.91-4.64-1.26-1.73-.34-3.49-.72-5.28-1.13-1.85-.4-3.63-.9-5.33-1.47s-3.23-1.36-4.59-2.34c-1.36-.98-2.44-2.24-3.25-3.77s-1.21-3.42-1.21-5.68c0-2.43.59-4.46,1.78-6.11,1.18-1.65,2.69-2.97,4.51-3.99,1.82-1.01,3.84-1.72,6.06-2.13,2.22-.4,4.35-.6,6.37-.6,2.31,0,4.52.25,6.63.74,2.11.49,4.02,1.29,5.72,2.38,1.7,1.1,3.12,2.53,4.25,4.29,1.13,1.76,1.83,3.89,2.12,6.37h-10.31c-.46-2.37-1.55-3.96-3.25-4.77-1.71-.81-3.65-1.21-5.85-1.21-.69,0-1.52.06-2.47.18s-1.85.33-2.69.65c-.84.32-1.55.78-2.13,1.39-.58.61-.87,1.4-.87,2.39,0,1.21.42,2.19,1.26,2.95.84.75,1.93,1.37,3.29,1.86,1.35.49,2.9.91,4.64,1.26s3.52.72,5.37,1.13c1.79.41,3.55.9,5.28,1.47,1.73.58,3.28,1.36,4.64,2.34,1.35.98,2.45,2.23,3.29,3.73s1.26,3.35,1.26,5.54c0,2.66-.6,4.91-1.82,6.76-1.21,1.85-2.79,3.35-4.72,4.5-1.94,1.16-4.09,1.99-6.46,2.51-2.37.52-4.71.78-7.02.78-2.83,0-5.44-.32-7.84-.95s-4.48-1.6-6.24-2.9c-1.76-1.3-3.15-2.92-4.16-4.86-1.01-1.93-1.55-4.23-1.6-6.89h9.88Z"/><path class="cls-5" d="M490.09,719.38c0,1.22.16,2.08.48,2.6s.94.78,1.86.78h1.04c.4,0,.87-.06,1.39-.18v6.85c-.35.11-.8.24-1.34.39s-1.11.27-1.69.39-1.16.2-1.73.26c-.58.06-1.07.09-1.47.09-2.02,0-3.7-.4-5.02-1.21-1.33-.81-2.2-2.22-2.6-4.25-1.97,1.91-4.38,3.29-7.23,4.16-2.86.87-5.62,1.3-8.28,1.3-2.02,0-3.96-.28-5.8-.82-1.85-.55-3.48-1.35-4.9-2.43-1.42-1.07-2.55-2.43-3.38-4.07s-1.26-3.57-1.26-5.76c0-2.77.51-5.02,1.52-6.76,1.01-1.73,2.34-3.09,3.99-4.07,1.65-.98,3.49-1.69,5.55-2.12,2.05-.43,4.12-.76,6.19-1,1.79-.35,3.49-.59,5.12-.74,1.61-.14,3.05-.39,4.29-.74,1.24-.35,2.23-.88,2.95-1.6.72-.72,1.08-1.8,1.08-3.25,0-1.27-.3-2.31-.91-3.12-.61-.81-1.36-1.43-2.25-1.86-.9-.43-1.89-.72-2.99-.87-1.1-.14-2.14-.22-3.12-.22-2.77,0-5.06.58-6.85,1.73-1.79,1.16-2.8,2.95-3.03,5.37h-9.88c.17-2.89.87-5.28,2.08-7.19,1.21-1.91,2.76-3.44,4.64-4.59,1.87-1.15,4-1.96,6.37-2.43,2.37-.46,4.79-.69,7.28-.69,2.19,0,4.36.23,6.5.69,2.13.46,4.06,1.21,5.76,2.25s3.08,2.38,4.12,4.03c1.04,1.65,1.56,3.65,1.56,6.02v23.05ZM480.22,706.91c-1.5.98-3.35,1.58-5.54,1.78-2.2.2-4.39.51-6.59.91-1.04.18-2.05.42-3.03.74-.98.32-1.85.75-2.6,1.3-.75.55-1.34,1.27-1.78,2.17-.44.9-.65,1.98-.65,3.25,0,1.1.32,2.02.95,2.77.64.75,1.4,1.34,2.3,1.78.9.43,1.88.74,2.95.91s2.04.26,2.9.26c1.1,0,2.28-.14,3.55-.43,1.27-.29,2.47-.78,3.6-1.48,1.13-.69,2.07-1.57,2.82-2.64.75-1.07,1.13-2.38,1.13-3.94v-7.37Z"/><path class="cls-5" d="M500.75,684.55h9.36v6.59l.17.18c1.5-2.49,3.47-4.44,5.89-5.85,2.43-1.41,5.11-2.12,8.06-2.12,4.91,0,8.78,1.27,11.61,3.81,2.83,2.55,4.25,6.36,4.25,11.44v30.76h-9.88v-28.16c-.12-3.52-.87-6.08-2.25-7.67s-3.55-2.39-6.5-2.39c-1.68,0-3.18.3-4.51.91-1.33.6-2.46,1.44-3.38,2.51-.93,1.07-1.65,2.33-2.17,3.77-.52,1.44-.78,2.98-.78,4.59v26.43h-9.88v-44.8Z"/><path class="cls-5" d="M550.5,684.55h9.36v6.59l.17.18c1.5-2.49,3.47-4.44,5.89-5.85,2.43-1.41,5.11-2.12,8.06-2.12,4.91,0,8.78,1.27,11.61,3.81,2.83,2.55,4.25,6.36,4.25,11.44v30.76h-9.88v-28.16c-.12-3.52-.87-6.08-2.25-7.67s-3.55-2.39-6.5-2.39c-1.68,0-3.18.3-4.51.91-1.33.6-2.46,1.44-3.38,2.51-.93,1.07-1.65,2.33-2.17,3.77-.52,1.44-.78,2.98-.78,4.59v26.43h-9.88v-44.8Z"/><path class="cls-5" d="M607.95,709.51c0,1.73.24,3.41.74,5.02.49,1.62,1.23,3.03,2.21,4.25.98,1.21,2.22,2.18,3.73,2.9,1.5.72,3.29,1.08,5.37,1.08,2.89,0,5.21-.62,6.98-1.86,1.76-1.24,3.07-3.1,3.94-5.59h9.36c-.52,2.43-1.42,4.59-2.69,6.5-1.27,1.91-2.8,3.51-4.59,4.81s-3.8,2.28-6.02,2.95c-2.23.66-4.55,1-6.98,1-3.53,0-6.64-.58-9.36-1.73-2.72-1.15-5.01-2.77-6.89-4.85-1.88-2.08-3.29-4.56-4.25-7.45-.95-2.89-1.43-6.06-1.43-9.53,0-3.18.5-6.2,1.52-9.06,1.01-2.86,2.45-5.38,4.33-7.54s4.15-3.88,6.8-5.16c2.65-1.27,5.66-1.91,9.01-1.91,3.52,0,6.69.74,9.49,2.21,2.8,1.47,5.13,3.42,6.98,5.85s3.19,5.22,4.03,8.36c.84,3.15,1.05,6.4.65,9.75h-32.93ZM631,703.01c-.12-1.56-.45-3.06-1-4.51-.55-1.44-1.3-2.7-2.25-3.77s-2.11-1.94-3.47-2.6c-1.36-.66-2.87-1-4.55-1s-3.31.3-4.72.91c-1.42.6-2.63,1.44-3.64,2.51-1.01,1.07-1.82,2.33-2.43,3.77-.61,1.44-.94,3.01-1,4.68h23.05Z"/></svg>