<?xml version="1.0" encoding="UTF-8"?><svg id="Calque_1" xmlns="http://www.w3.org/2000/svg" viewBox="0 0 850.39 850.39"><defs><style>.cls-1{fill:#524697;}.cls-2{fill:#f18963;}.cls-3{fill:#484596;}.cls-4{fill:#eb5a8d;}</style></defs><path class="cls-1" d="M667.51,481.16h-68.37c-15.15,40.01-29.72,77.36-60.8,108.17-165.66,164.2-444.46-23.6-345.05-242.6,38.07-83.87,127.45-129.95,218.25-123.7v-69.45c-29.47-.96-54.54,1.88-64.82,3.31-165.54,22.98-273.2,186.02-234.63,348.3,34.61,145.59,185.84,239.69,332.05,209.49,113.21-23.39,200.22-114.66,222.48-227.39l.9-6.12Z"/><polygon class="cls-4" points="539.27 153.58 470.08 153.58 470.08 415.96 474.07 419.95 688.97 419.95 709.9 350.76 539.31 350.76 539.27 153.58"/><path class="cls-3" d="M321.12,487.75c-41.69-53.71-4.8-131.23,62.45-134.51,10.13-.49,27.96.18,27.96.18v-62.54s-13.54-3.89-41.22-1.31c-178.73,16.65-179.6,281.2.26,300.4,69.82,7.45,145.97-38.95,160.72-108.83h-73.18c-31.82,49.18-100.69,53.35-136.98,6.59Z"/><polygon class="cls-2" points="649.53 231.38 649.53 153.58 599.14 153.58 599.14 283.71 730.11 283.71 746.15 231.38 649.53 231.38"/></svg>